<?xml version="1.0" encoding="UTF-8"?>
<svg width="399px" height="105px" viewBox="0 0 399 105" version="1.1" xmlns="http://www.w3.org/2000/svg" xmlns:xlink="http://www.w3.org/1999/xlink">
    <!-- Generator: Sketch 42 (36781) - http://www.bohemiancoding.com/sketch -->
    <title>tecnologico-de-monterrey-blue</title>
    <desc>Created with Sketch.</desc>
    <defs></defs>
    <g id="Page-1" stroke="none" stroke-width="1" fill="none" fill-rule="evenodd">
        <g id="tecnologico-de-monterrey-blue" fill-rule="nonzero" fill="#0033A0">
            <path d="M76.3537253,40.584737 C72.9778519,43.9547817 66.2850907,50.3289565 60.9173992,55.6403034 C48.2449707,67.1697526 48.0423832,74.6004708 48.7238777,78.0815467 C39.3953721,67.1760375 46.7938542,59.0037141 51.5390367,54.3760129 C53.7155358,52.2419772 67.1600439,39.0655633 70.2388827,36.1389456 C81.1266451,25.7823081 81.1234851,22.6825095 81.1234851,22.6825095 C85.2612562,32.4214917 79.7264388,37.2202788 76.3537253,40.584737 L76.3537253,40.584737 Z M76.0307089,56.7457282 C72.7169809,59.9778568 74.0473173,58.6835389 68.6785725,63.9226107 C59.9462431,72.4224414 59.8967372,78.0815467 59.8967372,78.0815467 C55.0230505,72.7576304 58.014464,63.9075969 63.2557577,58.8022517 C65.432608,56.6755481 69.4861138,52.851951 72.3736004,50.1236533 C78.2732158,44.5546302 80.1158142,42.9244252 80.9507415,40.7760741 C83.2093992,50.1124804 78.2461807,54.387535 76.0307089,56.7457282 L76.0307089,56.7457282 Z M39.8893766,50.021351 C42.3084894,47.6921374 57.7075984,32.6226049 60.6473996,29.7780388 C70.1883237,20.5383483 69.7589223,17.6372189 69.7589223,17.6372189 C73.8787871,27.3751536 68.2319672,32.6966258 64.8360808,36.0362942 C61.1364886,39.6762355 51.7721703,48.8321288 46.3777949,54.1085602 C32.8325198,67.3562014 37.687247,78.0791026 37.687247,78.0791026 C29.0869329,71.7387959 31.015903,58.6451319 39.8893766,50.021351 L39.8893766,50.021351 Z M34.2671342,39.6235132 C36.7020466,37.2314519 49.7845655,24.4666919 54.2134027,20.1804643 C63.5138197,11.1757553 62.9745227,7.59831247 63.3951463,5.72265149 C69.9098974,12.370913 65.9111639,19.1165889 62.3772933,22.6200107 C59.2816016,25.6894328 44.7546371,40.2837653 38.8490529,45.6401532 C37.3445686,47.0053495 27.5645422,55.9280072 28.2017973,64.1977448 C22.743872,57.3232308 24.2118416,48.6107645 34.2671342,39.6235132 L34.2671342,39.6235132 Z M22.3092041,35.9748427 C24.501503,33.7042874 41.132288,17.5673878 43.9520113,14.74412 C50.8319114,7.87414498 49.4713801,2.33514907 49.4713801,2.33514907 C57.4330343,8.36051799 54.5051707,14.8666734 50.1855274,19.0275543 C46.6807984,22.4213415 34.2615165,34.8446279 28.5244628,40.3158876 C19.4189088,49.0171809 20.5245381,56.2027922 22.2470587,62.3521112 C15.5746615,55.5390484 12.5463818,46.0902142 22.3092041,35.9748427 L22.3092041,35.9748427 Z M49.7884277,0.185750494 C22.2905957,0.185750494 2.84217094e-14,22.3525579 2.84217094e-14,49.697335 C2.84217094e-14,74.945785 19.0063606,95.7788203 43.5682537,98.8234525 L43.5682537,91.8141645 C35.3618792,90.5872336 27.1737623,87.8229729 21.7172414,80.3772412 L77.8582096,80.3772412 C72.4006355,87.8229729 64.2135719,90.5872336 56.0071973,91.8141645 L56.0071973,98.8234525 C80.5690905,95.7788203 99.5754511,74.945785 99.5754511,49.697335 C99.5754511,22.3525579 77.2841532,0.185750494 49.7884277,0.185750494 L49.7884277,0.185750494 Z" id="imagotipo"></path>
            <g id="texto" transform="translate(112.820513, 8.205128)">
                <path d="M33.7155674,22.2083727 C36.1083471,22.2083727 38.3950931,22.1556503 40.8394853,22.0519512 C41.6719551,22.0519512 41.9837362,21.8456006 41.9837362,21.0181032 C41.9837362,18.3809349 40.630929,15.7964891 38.2922195,15.7964891 C36.1596084,15.7964891 34.1842923,18.122211 33.7155674,22.2083727 L33.7155674,22.2083727 Z M47.4430661,32.3412018 C44.2718868,36.7360166 40.3718137,37.7698646 38.3950931,37.7698646 C31.6886388,37.7698646 27.8938972,32.6509024 27.8938972,26.7058392 C27.8938972,22.8784012 29.4001372,19.6738561 31.5854139,17.5021116 C33.8212498,15.1763897 36.6802968,13.7797695 39.3834533,13.7797695 L39.4361192,13.7797695 C44.0633305,13.7797695 47.650569,17.7608355 47.650569,21.8983231 C47.650569,22.9311237 47.3387879,23.4998972 46.2461493,23.706248 C45.3634718,23.8099471 38.9684474,24.3263473 33.4564519,24.5337454 C33.6123426,30.6355793 37.0436905,33.4790981 40.7352072,33.4790981 C42.7631889,33.4790981 44.738505,32.7549506 46.5589838,31.1006539 L47.4430661,32.3412018 L47.4430661,32.3412018 Z" id="Fill-2"></path>
                <path d="M70.1641161,32.2898761 C67.8240021,35.4944211 64.3916008,37.7698646 61.2737895,37.7698646 C54.3584277,37.7698646 50.302113,32.4449009 50.302113,26.860864 C50.302113,22.983497 52.1742043,19.4147831 55.5528866,16.8816631 C58.6735067,14.5559412 62.0002254,13.7797695 63.9769461,13.7797695 L64.0282072,13.7797695 C65.951911,13.7797695 67.6684628,14.4009163 68.5511403,15.0723415 C69.2800341,15.6414643 69.487537,16.1578646 69.487537,16.8816631 C69.4362757,18.2269575 68.1888002,19.4675055 67.4079428,19.4675055 C67.0961616,19.4675055 66.7833272,19.3124806 66.3153044,18.8973352 C64.3916008,17.1920619 62.6768045,16.4165885 61.0648821,16.4165885 C58.5176162,16.4165885 55.9703502,18.7433579 55.9703502,24.2236958 C55.9703502,31.2033054 60.9089916,33.4790981 63.4046449,33.4790981 C65.5888685,33.4790981 67.1477742,32.9110228 69.2273684,31.1006539 L70.1641161,32.2898761" id="Fill-3"></path>
                <path d="M86.4378275,37.1497653 L86.4378275,35.5995169 C88.933481,35.2880706 89.2452622,35.0293467 89.2452622,31.4107036 L89.2452622,22.6734472 C89.2452622,19.0024309 87.6863563,17.4493892 85.2419643,17.4493892 C83.6314462,17.4493892 82.1754142,18.2772359 80.7179778,19.4147831 L80.7179778,31.7734757 C80.7179778,35.0817198 81.0315145,35.2880706 83.4730978,35.5995169 L83.4730978,37.1497653 L71.4126451,37.1497653 L71.4126451,35.5995169 C74.7397151,35.1843715 74.9998837,35.0293467 74.9998837,31.6170542 L74.9998837,20.9154515 C74.9998837,17.7608355 74.7397151,17.5544849 72.0878199,17.0366879 L72.0878199,15.6927901 C74.8425887,15.2790413 77.9119477,14.6062195 80.7179778,13.6757213 L80.7179778,17.6068581 C81.7579506,16.8816631 82.8505889,16.0541656 84.0461009,15.2790413 C85.5537454,14.2961698 86.6965918,13.7797695 88.2056406,13.7797695 C92.3648289,13.7797695 94.9651118,16.7793606 94.9651118,21.8983231 L94.9651118,31.7734757 C94.9651118,35.0817198 95.2768929,35.2370939 98.0857319,35.5995169 L98.0857319,37.1497653 L86.4378275,37.1497653" id="Fill-4"></path>
                <path d="M106.663224,24.4827688 C106.663224,30.8932558 109.002987,35.8568441 112.642891,35.8568441 C115.087283,35.8568441 117.372976,34.2028966 117.372976,26.7571649 C117.372976,20.0352316 115.294787,15.6927901 111.498992,15.6927901 C109.002987,15.6927901 106.663224,18.5872856 106.663224,24.4827688 L106.663224,24.4827688 Z M123.873332,25.361592 C123.873332,33.6864962 117.842053,37.7698646 112.070942,37.7698646 C104.271498,37.7698646 100.163922,31.9794771 100.163922,26.2917411 C100.163922,17.9158604 106.767502,13.7797695 112.278445,13.7797695 C119.193455,13.7797695 123.873332,19.1050825 123.873332,25.361592 L123.873332,25.361592 Z" id="Fill-5"></path>
                <path d="M125.329364,37.1497653 L125.329364,35.5995169 C128.500543,35.1843715 128.86499,34.926695 128.86499,31.5657284 L128.86499,7.62660983 C128.86499,4.3183656 128.603417,4.21466654 125.536867,3.85259274 L125.536867,2.45632164 C128.448931,2.14627194 132.088835,1.37149686 134.583435,0.647349262 L134.583435,31.5657284 C134.583435,35.0293467 134.947882,35.2880706 138.171727,35.5995169 L138.171727,37.1497653 L125.329364,37.1497653" id="Fill-6"></path>
                <path d="M150.078747,11.0912755 C150.909813,8.86715776 152.626013,3.6975679 152.990811,2.71469639 C153.508691,2.40464669 157.356098,1.99089794 158.136955,2.14627194 L158.397124,2.66371975 L151.637653,11.7630498 L150.078747,11.0912755 L150.078747,11.0912755 Z M146.543121,24.4827688 C146.543121,30.8932558 148.881831,35.8568441 152.521735,35.8568441 C154.964723,35.8568441 157.252873,34.2028966 157.252873,26.7571649 C157.252873,20.0352316 155.173279,15.6927901 151.377484,15.6927901 C148.881831,15.6927901 146.543121,18.5872856 146.543121,24.4827688 L146.543121,24.4827688 Z M163.750771,25.361592 C163.750771,33.6864962 157.720545,37.7698646 151.949434,37.7698646 C144.150341,37.7698646 140.042765,31.9794771 140.042765,26.2917411 C140.042765,17.9158604 146.645995,13.7797695 152.158341,13.7797695 C159.073703,13.7797695 163.750771,19.1050825 163.750771,25.361592 L163.750771,25.361592 Z" id="Fill-7"></path>
                <path d="M173.266416,21.4831776 C173.266416,25.2578931 174.722448,28.1534359 177.322379,28.1534359 C179.401974,28.1534359 180.858006,26.084343 180.858006,22.1556503 C180.858006,18.5373564 179.45499,15.589091 176.75043,15.589091 C174.982265,15.589091 173.266416,17.6068581 173.266416,21.4831776 L173.266416,21.4831776 Z M173.0073,39.1155083 C172.019291,39.9932841 171.395378,41.0271323 171.395378,42.2687278 C171.395378,44.9044993 174.098534,47.2326652 178.153445,47.2326652 C182.417262,47.2326652 184.808638,44.9568726 184.808638,42.0613296 C184.808638,40.2006823 183.664387,39.063135 182.105481,38.5463856 C180.752674,38.1326369 179.505198,38.0289378 177.425604,38.0289378 C174.929951,38.0289378 173.786753,38.3400349 173.0073,39.1155083 L173.0073,39.1155083 Z M190.164743,14.8136176 C189.800296,15.6927901 188.811936,17.2433877 187.929258,17.8118122 L184.912916,17.6068581 C185.796998,18.6923812 186.368948,20.0352316 186.368948,21.7932273 C186.368948,27.2746127 181.584793,29.9627575 176.75043,29.9627575 C175.866698,29.9627575 174.982265,29.8077327 174.150147,29.7054302 C173.630863,30.1181315 173.110174,30.7906041 173.110174,31.4107036 C173.110174,32.2898761 173.99531,33.3760974 176.437244,33.3237241 C178.206462,33.3237241 179.816979,33.271351 181.481568,33.271351 C184.705413,33.271351 189.279607,34.2028966 189.279607,39.4754872 C189.279607,45.2159456 182.677431,50.0234617 175.762069,50.0234617 C169.419008,50.0234617 166.351054,46.6125657 166.299442,43.7166738 C166.299442,42.5278008 166.871391,41.6486283 167.807086,40.8207817 C169.004002,39.7869335 170.563259,38.7527362 171.810384,37.8735637 C169.783455,37.2024878 168.639556,36.1672431 167.962977,35.0293467 C167.442288,34.2542224 167.183524,33.1173735 167.235136,32.4958775 C169.730439,31.5657284 171.395378,30.1705048 172.279109,29.1876332 C169.419008,28.2047618 167.39208,25.6192685 167.39208,22.3110242 C167.39208,16.4679143 172.747132,13.7797695 177.166489,13.7797695 L177.218101,13.7797695 C179.193417,13.7797695 180.752674,14.244844 182.573153,15.1236673 C185.173085,15.0213649 187.876592,14.7099186 189.904574,14.4522421 L190.164743,14.8136176 L190.164743,14.8136176 Z" id="Fill-8"></path>
                <path d="M193.906467,6.80015977 C193.906467,4.93846498 195.415516,3.49051893 197.235995,3.49051893 C199.055421,3.49051893 200.510399,4.93846498 200.510399,6.80015977 C200.510399,8.55710806 199.055421,10.0574274 197.183329,10.0574274 C195.415516,10.0574274 193.906467,8.55710806 193.906467,6.80015977 L193.906467,6.80015977 Z M191.256328,37.1497653 L191.256328,35.5995169 C194.375544,35.2880706 194.687325,35.0293467 194.687325,31.4107036 L194.687325,21.0181032 C194.687325,17.7095097 194.42856,17.5021116 191.672387,17.0894103 L191.672387,15.6414643 C194.636063,15.2790413 197.755279,14.6062195 200.407174,13.7284437 L200.407174,31.4107036 C200.407174,34.926695 200.667343,35.2370939 203.889784,35.5995169 L203.889784,37.1497653 L191.256328,37.1497653 L191.256328,37.1497653 Z" id="Fill-9"></path>
                <path d="M225.674086,32.2898761 C223.335727,35.4944211 219.902974,37.7698646 216.785163,37.7698646 C209.869801,37.7698646 205.813487,32.4449009 205.813487,26.860864 C205.813487,22.983497 207.685579,19.4147831 211.065315,16.8816631 C214.18488,14.5559412 217.5116,13.7797695 219.48832,13.7797695 L219.539932,13.7797695 C221.463637,13.7797695 223.179836,14.4009163 224.063567,15.0723415 C224.79176,15.6414643 224.999262,16.1578646 224.999262,16.8816631 C224.947649,18.2269575 223.698769,19.4675055 222.919668,19.4675055 C222.607887,19.4675055 222.295754,19.3124806 221.826679,18.8973352 C219.902974,17.1920619 218.188178,16.4165885 216.576256,16.4165885 C214.028991,16.4165885 211.481725,18.7433579 211.481725,24.2236958 C211.481725,31.2033054 216.420365,33.4790981 218.916018,33.4790981 C221.100242,33.4790981 222.659149,32.9110228 224.738743,31.1006539 L225.674086,32.2898761" id="Fill-10"></path>
                <path d="M233.682086,24.4827688 C233.682086,30.8932558 236.022201,35.8568441 239.660699,35.8568441 C242.10439,35.8568441 244.393594,34.2028966 244.393594,26.7571649 C244.393594,20.0352316 242.315052,15.6927901 238.519608,15.6927901 C236.022201,15.6927901 233.682086,18.5872856 233.682086,24.4827688 L233.682086,24.4827688 Z M250.892546,25.361592 C250.892546,33.6864962 244.860564,37.7698646 239.0884,37.7698646 C231.29071,37.7698646 227.183134,31.9794771 227.183134,26.2917411 C227.183134,17.9158604 233.786716,13.7797695 239.299063,13.7797695 C246.212318,13.7797695 250.892546,19.1050825 250.892546,25.361592 L250.892546,25.361592 Z" id="Fill-11"></path>
                <path d="M19.5126726,65.0011664 C18.5250146,63.1921941 16.8614797,62.3643473 15.1459812,62.3643473 C13.4817441,62.3643473 9.37487028,63.9159924 9.37487028,71.6721231 C9.37487028,77.9286326 13.1183505,80.5644041 15.8738216,80.5644041 C17.1732608,80.5644041 18.3175116,80.1506554 19.5126726,79.3751819 L19.5126726,65.0011664 L19.5126726,65.0011664 Z M28.9753003,82.2696775 C27.7281758,82.4774248 23.2568552,83.0975241 19.5126726,84.288143 L19.5126726,81.1321303 L16.3414933,83.0975241 C14.7815343,84.0276732 13.7945785,84.2354205 13.2222776,84.2354205 C8.85488394,84.2354205 2.92788244,80.5644041 2.92788244,73.0160209 C2.92788244,65.9826412 9.16666507,60.2439286 16.9137943,60.2439286 C17.4337806,60.2439286 18.3175116,60.3490244 19.5126726,60.6063516 L19.5126726,53.9884665 C19.5126726,50.9899229 19.2008915,50.731199 15.8218581,50.4208002 L15.8218581,48.9218773 C18.941425,48.5591052 22.8407959,47.8367036 25.2321711,47.1125559 L25.2321711,77.3071366 C25.2321711,80.1506554 25.5446546,80.3570062 27.624951,80.6157301 L28.9753003,80.7718023 L28.9753003,82.2696775 L28.9753003,82.2696775 Z" id="Fill-12"></path>
                <path d="M36.9517009,68.6721828 C39.3434275,68.6721828 41.6315781,68.6212062 44.0745657,68.5171579 C44.9066843,68.5171579 45.2188166,68.3111563 45.2188166,67.4833097 C45.2188166,64.8461415 43.8670628,62.2616958 41.5272999,62.2616958 C39.3960931,62.2616958 37.4197239,64.5874176 36.9517009,68.6721828 L36.9517009,68.6721828 Z M50.6781463,78.8064084 C47.5059136,83.2015723 43.6082985,84.2354205 41.6315781,84.2354205 C34.9251237,84.2354205 31.1293288,79.1168072 31.1293288,73.1710457 C31.1293288,69.3450045 32.6366219,66.1390628 34.8204944,63.9673182 C37.0563303,61.6415963 39.9153772,60.2439286 42.6199383,60.2439286 L42.6715506,60.2439286 C47.2984107,60.2439286 50.8856492,64.2260421 50.8856492,68.3621331 C50.8856492,69.3963303 50.5738681,69.9665005 49.4822831,70.1714546 C48.5985522,70.2755028 42.2024745,70.7915541 36.6929366,70.9993011 C36.8488273,77.1007858 40.2801752,79.9443048 43.9702876,79.9443048 C45.9996738,79.9443048 47.9735854,79.2187606 49.7940642,77.5658605 L50.6781463,78.8064084 L50.6781463,78.8064084 Z" id="Fill-13"></path>
                <path d="M93.4160369,83.615321 L93.4160369,81.959977 C97.4193348,81.5472757 97.6805569,81.1845036 97.6278911,76.1692402 L97.5250174,55.8501614 L97.2644976,55.8501614 L85.3574777,83.2525489 L84.0590919,83.2525489 L73.0874154,56.418935 L72.8799124,56.418935 L72.2047378,70.3792018 C71.9961815,74.6703175 71.9961815,76.997087 72.152072,78.8064084 C72.3079627,81.1845036 73.3991965,81.5982523 76.8832103,81.9086511 L76.8832103,83.615321 L64.5085188,83.615321 L64.5085188,81.9086511 C67.4721951,81.6495781 68.4605553,80.823128 68.8250023,78.9090601 C69.1371344,77.2034375 69.4987725,74.6703175 69.8635705,69.2413054 L70.6433744,58.8483559 C71.1124505,52.6442195 70.7476525,52.0750968 66.2250706,51.6613481 L66.2250706,50.0070513 L76.1553698,50.0070513 L86.8138607,73.7914944 L97.6805569,50.0070513 L107.558191,50.0070513 L107.558191,51.6613481 C103.243112,52.0750968 103.03596,52.3865432 103.139887,57.0390343 L103.60791,76.1692402 C103.7638,81.1845036 103.972356,81.5472757 108.182104,81.959977 L108.182104,83.615321 L93.4160369,83.615321" id="Fill-14"></path>
                <path d="M116.377243,70.9465789 C116.377243,77.3584624 118.717357,82.3224 122.357261,82.3224 C124.801302,82.3224 127.089804,80.6681032 127.089804,73.2223715 C127.089804,66.5004382 125.008805,62.1579967 121.21301,62.1579967 C118.717357,62.1579967 116.377243,65.0524921 116.377243,70.9465789 L116.377243,70.9465789 Z M133.587702,71.8267988 C133.587702,80.1506554 127.556071,84.2354205 121.78496,84.2354205 C113.985867,84.2354205 109.879345,78.445033 109.879345,72.757297 C109.879345,64.3810671 116.481521,60.2439286 121.992463,60.2439286 C128.907825,60.2439286 133.587702,65.5702892 133.587702,71.8267988 L133.587702,71.8267988 Z" id="Fill-15"></path>
                <path d="M150.262375,83.615321 L150.262375,82.0633268 C152.756624,81.7536263 153.068405,81.4949024 153.068405,77.8762593 L153.068405,69.1386539 C153.068405,65.4665902 151.5095,63.9159924 149.065458,63.9159924 C147.453536,63.9159924 145.997504,64.7438392 144.542877,65.8803389 L144.542877,78.2386823 C144.542877,81.5472757 144.854306,81.7536263 147.297294,82.0633268 L147.297294,83.615321 L135.235788,83.615321 L135.235788,82.0633268 C138.563912,81.6495781 138.823027,81.4949024 138.823027,78.0822609 L138.823027,67.3806581 C138.823027,64.2260421 138.563912,64.0196915 135.911314,63.5022437 L135.911314,62.1579967 C138.667136,61.744248 141.735091,61.0714263 144.542877,60.1412771 L144.542877,64.0710172 C145.582498,63.3468697 146.673732,62.5193721 147.871,61.744248 C149.376889,60.7613764 150.521139,60.2439286 152.028784,60.2439286 C156.189377,60.2439286 158.789308,63.2431707 158.789308,68.3621331 L158.789308,78.2386823 C158.789308,81.5472757 159.10144,81.7023005 161.907822,82.0633268 L161.907822,83.615321 L150.262375,83.615321" id="Fill-16"></path>
                <path d="M173.61717,83.615321 C172.680422,84.0276732 171.900969,84.2354205 171.485963,84.2354205 C167.741429,84.2354205 165.558961,82.3224 165.558961,77.823537 L165.558961,63.1921941 L162.179226,63.1921941 L161.917653,62.6230712 L163.373685,60.8650755 L165.558961,60.8650755 L165.558961,57.0903602 L170.549566,53.264319 L171.277407,53.5230429 L171.277407,60.8650755 L176.632107,60.8650755 C177.204408,61.4341984 177.101183,62.7780962 176.320326,63.1921941 L171.277407,63.1921941 L171.277407,76.1182636 C171.277407,80.2030287 173.097886,80.7718023 174.242136,80.7718023 C175.280704,80.7718023 176.269065,80.4617526 177.101183,80.0993296 L177.568855,81.7023005 L173.61717,83.615321" id="Fill-17"></path>
                <path d="M184.499314,68.6721828 C186.89069,68.6721828 189.179191,68.6212062 191.622179,68.5171579 C192.453244,68.5171579 192.765025,68.3111563 192.765025,67.4833097 C192.765025,64.8461415 191.414676,62.2616958 189.073509,62.2616958 C186.942302,62.2616958 184.966986,64.5874176 184.499314,68.6721828 L184.499314,68.6721828 Z M198.224355,78.8064084 C195.053527,83.2015723 191.154507,84.2354205 189.179191,84.2354205 C182.471333,84.2354205 178.675538,79.1168072 178.675538,73.1710457 C178.675538,69.3450045 180.184235,66.1390628 182.367054,63.9673182 C184.602188,61.6415963 187.461586,60.2439286 190.166147,60.2439286 L190.21776,60.2439286 C194.846024,60.2439286 198.432912,64.2260421 198.432912,68.3621331 C198.432912,69.3963303 198.12113,69.9665005 197.028492,70.1714546 C196.144761,70.2755028 189.750088,70.7915541 184.239146,70.9993011 C184.395036,77.1007858 187.826384,79.9443048 191.51755,79.9443048 C193.544478,79.9443048 195.521199,79.2187606 197.341678,77.5658605 L198.224355,78.8064084 L198.224355,78.8064084 Z" id="Fill-18"></path>
                <path d="M209.25888,65.7253141 C211.026693,62.6743971 213.158952,60.2439286 215.288755,60.2439286 C217.265475,60.2439286 218.616878,61.6918747 218.616878,63.2431707 C218.616878,64.7948158 217.629922,66.087737 216.382798,66.5528115 C215.706217,66.8632103 215.18553,66.7078363 214.873748,66.3981358 C213.990018,65.6729407 213.36505,65.3628911 212.533986,65.3628911 C211.389735,65.3628911 210.141206,66.2940876 209.155655,68.6721828 L209.155655,78.2386823 C209.155655,81.4949024 209.414418,81.7536263 213.418068,82.0633268 L213.418068,83.615321 L200.004808,83.615321 L200.004808,82.0633268 C202.96708,81.7536263 203.435805,81.4949024 203.435805,78.2386823 L203.435805,67.1732601 C203.435805,64.2260421 203.12297,64.0196915 200.47248,63.5022437 L200.47248,62.1579967 C203.383139,61.7955737 206.190574,61.1754745 209.155655,60.1412771 L209.155655,65.7253141 L209.25888,65.7253141" id="Fill-19"></path>
                <path d="M229.677735,65.7253141 C231.444144,62.6743971 233.576404,60.2439286 235.707961,60.2439286 C237.68433,60.2439286 239.035733,61.6918747 239.035733,63.2431707 C239.035733,64.7948158 238.047725,66.087737 236.800248,66.5528115 C236.124021,66.8632103 235.604736,66.7078363 235.292956,66.3981358 C234.407469,65.6729407 233.783906,65.3628911 232.951789,65.3628911 C231.807536,65.3628911 230.560062,66.2940876 229.573106,68.6721828 L229.573106,78.2386823 C229.573106,81.4949024 229.832222,81.7536263 233.836923,82.0633268 L233.836923,83.615321 L220.422258,83.615321 L220.422258,82.0633268 C223.385936,81.7536263 223.853606,81.4949024 223.853606,78.2386823 L223.853606,67.1732601 C223.853606,64.2260421 223.541826,64.0196915 220.88993,63.5022437 L220.88993,62.1579967 C223.800591,61.7955737 226.608726,61.1754745 229.573106,60.1412771 L229.573106,65.7253141 L229.677735,65.7253141" id="Fill-20"></path>
                <path d="M245.611928,68.6721828 C248.002952,68.6721828 250.292156,68.6212062 252.735846,68.5171579 C253.567965,68.5171579 253.880447,68.3111563 253.880447,67.4833097 C253.880447,64.8461415 252.528693,62.2616958 250.186825,62.2616958 C248.055618,62.2616958 246.082408,64.5874176 245.611928,68.6721828 L245.611928,68.6721828 Z M259.340129,78.8064084 C256.166142,83.2015723 252.268876,84.2354205 250.292156,84.2354205 C243.586053,84.2354205 239.790609,79.1168072 239.790609,73.1710457 C239.790609,69.3450045 241.296849,66.1390628 243.480722,63.9673182 C245.717259,61.6415963 248.575253,60.2439286 251.282271,60.2439286 L251.331426,60.2439286 C255.958989,60.2439286 259.54728,64.2260421 259.54728,68.3621331 C259.54728,69.3963303 259.234798,69.9665005 258.142862,70.1714546 C257.258076,70.2755028 250.864457,70.7915541 245.355621,70.9993011 C245.510107,77.1007858 248.940402,79.9443048 252.630515,79.9443048 C254.659902,79.9443048 256.63311,79.2187606 258.455344,77.5658605 L259.340129,78.8064084 L259.340129,78.8064084 Z" id="Fill-21"></path>
                <path d="M285.283268,62.3643473 C282.685091,62.8294219 282.218123,63.2958931 280.866369,66.1390628 C279.56377,68.8788825 277.899532,73.1710457 274.627235,80.8744539 C271.140763,89.1466357 270.101493,92.3002041 269.21671,95.1957471 C268.907737,96.2826669 268.230105,96.5413908 267.397986,96.5413908 C265.944412,96.5413908 264.020357,95.146167 264.020357,93.5417996 C264.020357,92.7153495 264.381994,92.2502749 265.372111,91.5774531 C267.296166,90.5446525 268.437255,89.4071052 269.480037,87.5440139 C270.206825,86.3034658 270.519309,85.5283417 270.726459,84.9078931 C270.986277,84.0803957 270.884457,83.3565971 270.568464,82.4774248 C268.075618,75.6004667 265.424775,68.6212062 264.227508,65.8290131 C263.237393,63.3995922 262.668603,62.7780962 260.066915,62.3643473 L260.066915,60.8650755 L272.078213,60.8650755 L272.078213,62.3643473 C269.789009,62.8294219 269.427372,63.1921941 270.048827,64.9501897 L274.262086,76.997087 C275.561173,73.842471 277.485229,68.3111563 278.471834,65.2602394 C279.044135,63.4495212 278.629832,62.8294219 275.926324,62.3643473 L275.926324,60.8650755 L285.283268,60.8650755 L285.283268,62.3643473" id="Fill-23"></path>
                <path d="M2.1779224,2.85400925 C2.04274703,5.91505169 1.7962714,8.70200741 1.61966564,11.7379107 L3.36922127,11.7379107 C3.98857028,9.21840775 4.55560466,7.53792443 5.32733319,6.64408747 C6.04990704,5.64375822 7.02597861,5.17344634 11.2508237,5.17344634 L13.5681159,5.17344634 L13.5681159,30.3255296 C13.5681159,34.6829848 13.0512895,35.1016217 8.62350583,35.4720753 L8.62350583,37.1497653 L24.6897141,37.1497653 L24.6897141,35.4720753 C20.0038683,35.1016217 19.5418143,34.6829848 19.5418143,30.3255296 L19.5418143,5.17344634 L22.3215116,5.17344634 C25.6703499,5.17344634 26.801961,5.48873337 27.7306334,6.53759518 C28.5023621,7.43422537 29.1185512,9.05849473 29.7371979,11.6855374 L31.4372478,11.5804417 C31.2234248,8.86331705 31.0096021,5.75129797 30.9442964,2.85400925 L2.1779224,2.85400925" id="Fill-25"></path>
            </g>
        </g>
    </g>
</svg>