<?xml version="1.0" encoding="utf-8"?>
<!-- Generator: Adobe Illustrator 19.2.1, SVG Export Plug-In . SVG Version: 6.00 Build 0)  -->
<svg version="1.1" id="layer" xmlns="http://www.w3.org/2000/svg" xmlns:xlink="http://www.w3.org/1999/xlink" x="0px" y="0px"
	 viewBox="0 0 652 652" style="enable-background:new 0 0 652 652;" xml:space="preserve">
<style type="text/css">
	.st0{fill:#00557F;}
</style>
<path class="st0" d="M210.6,291.3c0,7.4-6,12.7-14.4,12.7c-8.3,0-14.4-5.3-14.4-12.7v-22.4h6v22.4c0,4.5,3.4,7.5,8.4,7.5
	c5.1,0,8.4-2.9,8.4-7.5v-22.4h6V291.3z M221.2,281.7v-3h-5.5v24.6h5.5v-17.4c2.3-1.9,5-3,7.2-3c2.5,0,4.5,1.5,4.5,4.7v15.6h5.5v-16
	c0-6.3-3.9-9.2-8.4-9.2C227.1,278,223.8,279.2,221.2,281.7z M243.8,303.3h5.5v-24.6h-5.5V303.3z M249.9,271.9c0-1.8-1.5-3.2-3.3-3.2
	c-1.8,0-3.3,1.5-3.3,3.2c0,1.8,1.5,3.2,3.3,3.2C248.4,275.1,249.9,273.7,249.9,271.9 M277.8,278.7h-5.9l-6.9,18.6l-6.9-18.6h-5.9
	l9.8,24.6h5.9L277.8,278.7z M284.4,288.5c0.7-3.4,3-5.6,6.4-5.6c3.6,0,5.4,2.2,5.9,5.6H284.4 M302.3,291.2c0-7.6-4-13.2-11.7-13.2
	c-7.3,0-12.1,5.8-12.1,13c0,7.2,4.9,13,12.2,13c3.2,0,6.7-1.2,9.5-3.3l-1.3-3.6c-2.7,1.4-5.3,2.1-7.8,2.1c-3.7,0-6.2-2.5-6.7-6.4
	c0-0.1,0-0.3-0.1-0.4h18C302.3,292,302.3,291.6,302.3,291.2 M322.3,278c-0.2,0-0.4,0-0.7,0c-3.1,0-6.7,1.4-9.6,4.1v-3.4h-5.5v24.6
	h5.5v-16.6c2.6-2.2,5.7-3.4,8.5-3.4c0.3,0,0.5,0,0.8,0L322.3,278 M324.2,285.6c0,4.3,2.8,5.7,9.1,7.4c3.3,0.9,5.5,1.2,5.5,3.3
	c0,2-2.3,3.2-5.3,3.2c-2.9,0-6-1.1-7.6-3.1l-2.3,3.6c2,2.5,6.1,3.9,10.1,3.9c4.9,0,10.6-2.1,10.6-7.8c0-5.6-5.4-6.8-9.4-7.8
	c-4.1-1.1-5.2-1.6-5.1-3.1c0-1.9,1.9-2.9,4.5-2.9c2.6,0,5.4,0.8,6.9,2.4l2.3-3.6c-2.4-2.3-6.2-3.2-9.4-3.2
	C329.1,278,324.2,280,324.2,285.6z M348.3,303.3h5.5v-24.6h-5.5V303.3z M354.4,271.9c0-1.8-1.5-3.2-3.3-3.2c-1.8,0-3.3,1.5-3.3,3.2
	c0,1.8,1.5,3.2,3.3,3.2C352.9,275.1,354.4,273.7,354.4,271.9 M374.2,298.6c-1.1,0.4-2.3,0.7-3.5,0.7c-1.9,0-3.4-0.8-3.4-3.2v-12.9h7
	v-4.4h-7v-6.8h-5.5v6.8h-0.2l-4.6,0.9v3.5h4.8v13.3c0,5.5,3.6,7.6,7.5,7.6c2.1,0,4.3-0.6,6.2-1.7L374.2,298.6z M403.5,278.7h-5.8
	l-7.1,17.8l-7.5-17.8h-6l10.8,24.5l-3.9,9.9l5.1,0L403.5,278.7z M422.9,291c0-4.7,2.6-8,7-8c4.3,0,6.9,3.3,6.9,8c0,4.8-2.6,8-6.9,8
	C425.6,299,422.9,295.7,422.9,291 M442.5,291c0-7.2-5-13-12.6-13c-7.6-0.1-12.6,5.7-12.6,13c0,7.2,5,13,12.6,13
	C437.5,304,442.5,298.2,442.5,291 M454.7,277.3c0-3,1.4-4.7,3.8-4.7c1.6,0,3.3,0.4,5.2,1.1l1.3-3.8c-2.5-1.3-5.1-2-7.4-2
	c-4.8,0-8.5,3-8.5,9.7v1.1H449l-4.6,0.9v3.5h4.8v20.2h5.5v-20.2h7v-4.4h-7V277.3 M170,319.9c-4.8-4.3-11.8-7.1-20.3-7.1
	c-11.1,0-21.4,4.8-21.5,17.3c0,9.9,6.3,12.7,19.6,16.4c7.8,2.1,11.2,3,11.1,7.2c0,4-3.5,6.7-9.7,6.7c-5.7,0-12.3-2.4-15.8-6.7
	l-6.7,7.5c4.7,6,13.9,9.5,22.4,9.5c9.9,0,21.9-4.9,21.9-17.4c-0.1-12-11.1-14.7-19.5-16.9c-9.8-2.6-11.3-3.7-11.2-6.8
	c0.3-4.7,3.9-6.4,9.2-6.4c5.8,0,10.6,2,13.9,4.6L170,319.9 M186.3,349.7c-0.1-6.7,3.7-11.5,9.9-11.5c6.1,0,9.9,4.7,9.9,11.5
	c0,6.8-3.8,11.5-9.9,11.5C190.2,361.2,186.3,356.4,186.3,349.7 M217.5,349.7c0-11.6-8.3-21-21.2-21c-12.8-0.1-21.2,9.3-21.2,21
	c0,11.6,8.4,21,21.2,21C209.1,370.7,217.5,361.3,217.5,349.7 M260.1,329.8H249v27.3c-3.1,2.6-6.8,4.1-10,4.1c-3.6,0-6-2.3-6-6.8
	v-24.5h-11.1v25.9c0,10.3,6.1,14.9,13.4,14.9c4.6,0,9.6-2,13.7-5.9v4.8h11.1V329.8z M292.6,360.5c-1.8,0.6-3.7,1-5.4,1
	c-3,0-5.1-1.3-5.1-5.1v-18h10.7v-8.6h-10.7v-10.8H271v10.8h-0.2l-7.4,1.6v7h7.6v19.4c0,9.3,6.1,12.8,12.9,12.8c3.7,0,7.6-1,11-2.7
	L292.6,360.5z M310,334.7v-20.7h-11.1v55.7H310v-27.3c3.1-2.6,6.9-4.1,10-4.1c3.8,0,6.7,2.1,6.7,6.8l0,24.5h11.1v-25.9
	c0-10.3-6.3-14.9-13.6-14.9C319.4,328.7,314.1,330.8,310,334.7z M371.8,356.6c-3.1,3.1-7.2,4.7-10.3,4.7c-5.3,0-8.3-4.6-8.3-11.6
	c0-7,3.2-11.6,8.3-11.6c3.1,0,7.2,1.6,10.3,4.7V356.6 M382.9,329.8h-11.1v4.3c-4-3.7-8.5-5.4-12.8-5.4c-10.1,0-17.2,9.3-17.2,21
	c0,11.7,7.1,21,17.2,21c4.3,0,8.8-1.6,12.8-5.4v4.3h11.1V329.8z M425.3,335.3c-2.3-4.5-6.5-6.5-11.3-6.5c-4.6,0-9.6,2-13.6,5.9v-4.8
	h-11.1v39.8h11.1v-27.4c2.9-2.5,6.4-4,9.3-4c3.5,0,6.2,2.1,6.2,6.8v24.5H427v-25.9c0-0.6,0-1.3-0.1-1.8c3-2.3,6.4-3.6,9.2-3.6
	c3.6,0,6.3,2.1,6.3,6.9v24.5h11.1v-25.9c0-10.3-6-14.9-13.1-14.9C435.4,328.7,429.7,331,425.3,335.3z M490.4,349.7
	c0,7.5-3.5,11.6-8.4,11.7c-3.3,0-7.2-1.8-10.4-5.1v-13.4c3.2-3.2,7.2-4.8,10.4-4.8C487.3,338.1,490.4,342.9,490.4,349.7
	 M471.6,334.1v-4.3h-11.1v55.7h11.1v-20c3.8,3.5,8.4,5.2,12.6,5.2c9.8,0,17.5-8.4,17.5-21c0-11.7-7-21-17.4-21
	C479.9,328.7,475.4,330.6,471.6,334.1z M532.7,360.5c-1.8,0.6-3.7,1-5.4,1c-3,0-5.1-1.3-5.1-5.1v-18h10.7v-8.6h-10.7v-10.8H511v10.8
	h-0.2l-7.4,1.6v7h7.6v19.4c0,9.3,6.1,12.8,12.9,12.8c3.7,0,7.6-1,11-2.7L532.7,360.5z M547.4,349.7c-0.1-6.7,3.7-11.5,9.9-11.5
	c6.1,0,9.9,4.7,9.9,11.5c0,6.8-3.8,11.5-9.9,11.5C551.2,361.2,547.4,356.4,547.4,349.7 M578.5,349.7c0-11.6-8.3-21-21.2-21
	c-12.8-0.1-21.2,9.3-21.2,21c0,11.6,8.4,21,21.2,21C570.2,370.7,578.5,361.3,578.5,349.7 M593.9,334.7v-4.8h-11.1v39.8h11.1v-27.2
	c3.3-2.6,7.2-4.1,10.2-4.1c3.6,0,6.4,2.1,6.4,6.8l0,24.5h11.1v-25.9c0-10.3-6.3-14.9-13.6-14.9C603.5,328.7,598.2,330.7,593.9,334.7
	z"/>
<path class="st0" d="M115.9,284.6c-0.1,0-1.3,1-2.6,1.3c-0.1,1-0.6,2-1.5,2.7c-0.7,0.5-1.4,0.7-2.2,0.7c-0.3,0-0.6,0-0.9-0.1
	c-0.7,1.2-2,2-2,2.1l-0.2,0.2l-0.2-0.2c-0.1,0-1.3-0.9-2.1-2.1c-0.3,0.1-0.6,0.1-0.8,0.1c-0.7,0-1.5-0.2-2.2-0.7
	c-0.9-0.7-1.4-1.6-1.5-2.7c-1.3-0.3-2.6-1.3-2.6-1.3l-0.2-0.2l0.1-0.3c0-0.1,0.5-1.5,1.3-2.6c-0.5-0.9-0.7-2-0.4-3
	c0.3-0.9,1-1.7,1.8-2.1c0.1,0,0.2-0.1,0.3-0.1c-0.1-1.4,0.4-2.8,0.4-2.9l0.1-0.3l0.3,0c0.1,0,1.6,0,2.9,0.5c0.7-0.8,1.7-1.3,2.8-1.3
	c1.1,0,2.1,0.5,2.8,1.3c1.3-0.5,2.8-0.5,2.9-0.5l0.3,0l0.1,0.3c0,0.1,0.5,1.5,0.4,2.9c0.1,0,0.2,0.1,0.2,0.1
	c0.9,0.4,1.5,1.2,1.8,2.1c0.3,1.1,0.2,2.2-0.4,3c0.9,1.1,1.3,2.5,1.4,2.6l0.1,0.3L115.9,284.6z M110.3,338.1
	c-3,9.4-7.4,17.5-13.1,24.1c-6.8,8-15.6,13.9-26,17.5c-10.4-3.6-19.1-9.5-26-17.5c-5.7-6.6-10.1-14.8-13.2-24.1
	c-4.2-12.8-4.7-24.6-4.8-28.9c0.8-0.3,1.9-0.7,3.2-1.2c0.9,2.7,2.9,5.2,6.2,7.5c4.4,3.1,9.1,4.4,9.3,4.5c0,0,9.6,2.8,15.3,4.5
	c3.6,1.2,3.5,3.8,2.9,5.7c0,0.1-0.1,0.2-0.1,0.3c-0.1,0.2-0.2,0.5-0.3,0.7c0,0,0,0,0,0c-0.1,0.2-0.2,0.5-0.3,0.7
	c-0.2-0.2-0.5-2.3-4.5-4.3c-4-2-10-1.1-10.7-0.7c-0.3,0.2-0.4,0.3-0.1,0.6c0.2,0.1,0.4,0.2,0.5,0.4c0.9,1,0.8,3.2,3.6,6.1
	c0.9,0.8,1.8,1.4,2.8,1.9c4,1.9,5.8,1,6.5,0.9c0,0.1-0.1,0.3-0.1,0.4c-6.1,10.7-8.5,19.9-8.8,27.6l1.2,1c2.4,2,4.9,3.8,7.6,5.5v0
	l2.2,1.3c2.4,1.3,4.9,2.4,7.5,3.4c7.2-2.7,13.5-6.5,18.9-11.5c0,0,0.7-0.7,1.1-1.1c-0.8-0.1-1.6-0.1-2.4-0.2
	c-10.3-0.4-13.3-4.5-11.5-10.7c0.1-0.2,0.4-0.8,0-1.2c-0.3-0.3-0.9-0.1-1.1,0c-10.6,5-13.6,20-13.6,20s-0.4-11.9,7.9-19.9
	c8.3-8,15.3-6.4,15.6-6.4c3.4,0.8,4.1-1.2,4.3-2.8c0-0.2,0.1-0.4,0.3-0.6c1.6-1.1,3.3-5.4,1.5-7c-0.9-0.8-4.3-1.7-5.2-2
	c-0.8-0.3-1.5-0.5-2.2-0.9c-0.4-0.2-0.8-0.5-1-1c-0.6-1.8-2.3-2.7-2.7-3c3.5-0.8,7.3-2.8,11.3-5.9c1.2-1,2.2-2,3-3.1
	c0.8-0.9,0.8-1.8,2.2-2.4c2.9-1.4,2.8-2.9,2.3-3.4c-0.5-0.5-2.3,0.2-2.5,0.4c0.1-0.8,0-1.7-0.1-2.5c0,0,0-0.1,0-0.1
	c0-0.1,0-0.1,0-0.2c0-0.1,0-0.2-0.1-0.4c0,0,0-0.1,0-0.1c-0.6-2.9-2.2-5.4-3.9-7.2c10.5,2,18.3,5,21.5,6.3
	C114.9,313.6,114.5,325.3,110.3,338.1 M37.4,312.7c-2.1-1.3-3.7-3.3-4.5-5.6c1.3-0.4,2.8-0.9,4.4-1.4c0,0,0,0,0,0
	C36.9,307.6,36.7,310.3,37.4,312.7 M26.3,284.6l-0.2-0.2l0.1-0.3c0-0.1,0.5-1.5,1.3-2.6c-0.5-0.9-0.7-2-0.4-3c0.3-0.9,1-1.7,1.8-2.1
	c0.1,0,0.2-0.1,0.3-0.1c-0.1-1.4,0.4-2.8,0.4-2.9l0.1-0.3l0.3,0c0.1,0,1.6,0,2.9,0.5c0.7-0.8,1.7-1.3,2.8-1.3c1.1,0,2.1,0.5,2.8,1.3
	c1.3-0.5,2.8-0.5,2.9-0.5l0.3,0l0.1,0.3c0,0.1,0.5,1.5,0.4,2.9c0.1,0,0.2,0.1,0.2,0.1c0.9,0.4,1.5,1.2,1.8,2.1
	c0.3,1.1,0.2,2.2-0.4,3c0.9,1.1,1.3,2.5,1.4,2.6l0.1,0.3l-0.2,0.2c-0.1,0-1.3,1-2.6,1.3c-0.1,1-0.6,2-1.5,2.7
	c-0.7,0.5-1.4,0.7-2.2,0.7c-0.3,0-0.6,0-0.9-0.1c-0.7,1.2-2,2-2,2.1l-0.2,0.2l-0.2-0.2c-0.1,0-1.3-0.9-2.1-2.1
	c-0.3,0.1-0.6,0.1-0.8,0.1c-0.7,0-1.5-0.2-2.2-0.7c-0.9-0.7-1.4-1.6-1.5-2.7C27.6,285.6,26.4,284.7,26.3,284.6 M74.3,315.4
	L74.3,315.4c0.1-0.2,2.1-4.5,3.4-7.6c1.1-2.8-1.1-5.6-2.6-7.1c5.1,0.2,9.9,0.7,14.4,1.4c0.6,0.6,1.3,1.1,1.4,1.6
	c-4.1-0.4-6.3,0.5-6.1,2c0.1,0.6,1,0.8,1.8,0.6c0.7-0.1,3.8-0.4,6.1,1.3c1,0.8,1.7,2.1,1.8,3.9c0,0,0,0.1,0,0.1c0,0.2,0,0.3,0,0.5
	c0.1,2.8-1.2,5.3-3.8,7.3c-8.4,6.6-13.3,5.7-14,5.5c-2.3-1.4-3.4-3.3-3.4-5.8C73.5,317.2,74.3,315.5,74.3,315.4 M70.2,307
	c0.7,0.3,2.6,1.5,3.1,2.8c0.2,0.5-0.2,1.1-0.4,1.6c-0.7,1.4-1.2,2.6-1.3,2.7c-0.2,0.3-1.1,2.3-1.2,4.9c-0.1,1.7,0.2,3.9,1.8,5.9
	c-0.2,0-0.3,0-0.3,0c-1.5-0.1-3,0.1-3.7,0.2c-0.7,0-1-0.3-1.3-0.7c-0.9-1.3-2.4-2.5-4.7-3.1c-2.8-0.8-6.5-1.8-9.5-2.6c0,0,0,0,0,0
	c-5.9-1.6-4.3-5.1-5.7-5c-1.4,0.1-0.7,2.5-0.1,3.4c-2.4-0.5-3.6-1.4-3.6-1.4c-4.3-3.5-4.1-7.7-3.2-10.7c8.1-2.2,19.1-4.3,31.3-4.3
	c0.1,0,0.3,0,0.4,0c1.4,1.1,4.2,3.8,3.2,6c-0.1,0.2-0.1,0.3-0.2,0.5c-1.8-1.2-3.6-1.9-3.9-2.1c-0.8-0.3-1.5-0.4-1.7,0.2
	C68.9,306,69.5,306.6,70.2,307 M48.3,270.7c0-0.1,0.1-0.3,0.2-0.4c0.1-0.1,0.3-0.1,0.4-0.1l1.1,0.2v-2.3c0-0.2,0.1-0.3,0.2-0.4
	c0.1-0.1,0.3-0.1,0.5-0.1l1,0.3v-1.7c0-0.4,0.2-0.8,0.6-1c0.2-0.1,0.4-0.1,0.5-0.1c0.2,0,0.4,0.1,0.6,0.2c0.2,0.1,0.3,0.2,0.5,0.3
	c0.8,0.5,1.7,1.1,4.3,1.7c0.7,0.2,1.7,0.3,2.7,0.5c1.7,0.3,3.7,0.7,5.5,1.2c2.2,0.7,3.7,1.5,4.5,2.6c0.2,0.2,0.2,0.4,0.2,0.7
	c0-0.2,0.1-0.5,0.2-0.7c0.9-1.1,2.3-1.9,4.5-2.6c1.8-0.5,3.8-0.9,5.5-1.2c1-0.2,2-0.4,2.7-0.5c2.6-0.6,3.5-1.2,4.3-1.7
	c0.2-0.1,0.3-0.2,0.5-0.3c0.2-0.1,0.4-0.2,0.6-0.2c0.2,0,0.4,0,0.5,0.1c0.3,0.2,0.6,0.6,0.6,1v1.7l1-0.3c0.2-0.1,0.3,0,0.5,0.1
	c0.1,0.1,0.2,0.2,0.2,0.4v2.3l1.1-0.2c0.1,0,0.3,0,0.4,0.1c0.1,0.1,0.2,0.2,0.2,0.4v18.5c0,1.8-1.3,2.5-4.6,2.3
	c-11.2-0.3-15.4,2.6-15.4,2.6c0,1-1.1,1.7-2.7,1.7c-1.7,0-2.7-0.6-2.7-1.7c0,0-4.2-2.9-15.4-2.6c-3.3,0.2-4.6-0.6-4.6-2.3V270.7z
	 M118.8,268.1c-0.8-0.4-21.2-9.7-47.7-9.7c-26.5,0-46.9,9.3-47.7,9.7l-1.6,0.8v42.8l0,0c0.2,5.8,1.1,16.4,5,28.1
	c7.5,22.9,22.6,38.7,43.7,45.7c0.3,0.1,0.6,0.1,0.9,0.1c0.3,0,0.6,0,0.9-0.1c21.1-7,36.2-22.8,43.5-45.7c3.7-11.6,4.6-22.2,4.8-28
	l0,0v-0.1v-42.7L118.8,268.1z"/>
<path class="st0" d="M33.4,277.2c0,0-0.3-0.4-0.3-1.2c0-1.5,1.2-2.6,2.6-2.6c1.5,0,2.6,1.2,2.6,2.6c0,0.8-0.3,1.2-0.3,1.2l-1.1,1.5
	c-0.2-0.1-0.5-0.2-0.8-0.2v-1.1c0-0.2-0.2-0.4-0.4-0.4c-0.2,0-0.4,0.2-0.4,0.4v1.1c-0.3,0-0.5,0.1-0.8,0.2L33.4,277.2z M38.3,280.1
	l1.1-0.3c0.2-0.1,0.5,0.1,0.5,0.3c0.1,0.2,0,0.5-0.3,0.5l-1.1,0.3c0,0.1,0,0.3,0,0.4c0,0.1,0,0.3,0,0.4l1.8,0.6c0,0,0.5,0.2,1.3-0.1
	c1.4-0.5,2.1-1.9,1.7-3.3c-0.2-0.7-0.7-1.2-1.3-1.5c-0.6-0.3-1.3-0.4-2-0.2c-0.8,0.2-1.1,0.6-1.1,0.7l-1.1,1.6
	C38,279.6,38.1,279.8,38.3,280.1 M39.4,276.3c0.1,0,0.2-0.1,0.3-0.1c0.6-0.2,1.1-0.2,1.7-0.1c0-0.8-0.2-1.6-0.3-2.1
	c-0.4,0-1.3,0.1-2.1,0.4c0.3,0.5,0.4,1.1,0.4,1.7C39.4,276.1,39.4,276.2,39.4,276.3 M31.8,276.2c0.1,0,0.2,0.1,0.3,0.1
	c0-0.1,0-0.2,0-0.3c0-0.6,0.1-1.2,0.4-1.7c-0.8-0.3-1.6-0.3-2.1-0.3c-0.1,0.4-0.3,1.3-0.3,2.1C30.7,276,31.2,276,31.8,276.2
	 M29.8,282.2c0.7,0.2,1.2,0.1,1.3,0.1l1.8-0.6c0-0.1,0-0.3,0-0.4c0-0.1,0-0.3,0-0.4l-1.1-0.3c-0.2-0.1-0.3-0.3-0.3-0.5
	c0.1-0.2,0.3-0.3,0.5-0.3l1.1,0.3c0.1-0.3,0.3-0.5,0.5-0.7l-1.1-1.6c0,0-0.3-0.4-1.1-0.7c-0.3-0.1-0.5-0.1-0.8-0.1
	c-0.4,0-0.8,0.1-1.2,0.3c-0.6,0.3-1.1,0.9-1.3,1.5C27.7,280.2,28.5,281.7,29.8,282.2 M34.7,287.2c0.5-0.6,0.5-1.1,0.5-1.2v-1.9
	c-0.3-0.1-0.5-0.1-0.8-0.3l-0.7,0.9c-0.1,0.1-0.2,0.2-0.3,0.2c-0.1,0-0.2,0-0.3-0.1c-0.2-0.1-0.2-0.4-0.1-0.6l0.7-0.9
	c-0.2-0.2-0.4-0.4-0.5-0.7l-1.8,0.6c0,0-0.5,0.2-1,0.8c-0.9,1.2-0.6,2.8,0.6,3.7C32.2,288.6,33.9,288.4,34.7,287.2 M70,293v-20.6
	c0-0.6-2.8-2.5-9.1-3.3c-6.3-0.9-8.1-2.8-8.1-2.8v22.2c1.1,0.9,1.3,0.8,8.5,1.6C68.9,291,70,293,70,293 M80.9,290.1
	c7.3-0.8,7.5-0.7,8.5-1.6v-22.2c0,0-1.8,1.9-8.1,2.8c-6.3,0.9-9.1,2.8-9.1,3.3V293C72.2,293,73.3,291,80.9,290.1 M29.6,283.5
	c0.1-0.1,0.1-0.2,0.2-0.2c-0.1,0-0.2,0-0.3-0.1c-0.6-0.2-1.1-0.5-1.5-0.9c-0.5,0.6-0.8,1.4-1,1.9c0.4,0.2,1.1,0.7,1.9,0.9
	C29.1,284.5,29.3,284,29.6,283.5 M35.9,287.8c-0.1-0.1-0.1-0.2-0.2-0.2c0,0.1-0.1,0.2-0.2,0.2c-0.4,0.5-0.8,0.9-1.3,1.1
	c0.5,0.7,1.1,1.2,1.5,1.5c0.4-0.3,1-0.8,1.5-1.5C36.7,288.7,36.2,288.3,35.9,287.8 M41.9,283.2c-0.1,0-0.2,0.1-0.3,0.1
	c0.1,0.1,0.1,0.1,0.2,0.2c0.4,0.5,0.6,1,0.7,1.6c0.8-0.2,1.5-0.7,1.9-0.9c-0.2-0.4-0.5-1.2-1-1.9C43,282.7,42.5,283,41.9,283.2
	 M40.1,283.3C40,283.3,40,283.3,40.1,283.3l-1.8-0.6c-0.1,0.2-0.3,0.5-0.5,0.7l0.7,0.9c0.1,0.2,0.1,0.5-0.1,0.6
	c-0.1,0.1-0.2,0.1-0.3,0.1c-0.1,0-0.3-0.1-0.3-0.2l-0.7-0.9c-0.2,0.1-0.5,0.2-0.8,0.3v2c0,0,0,0.5,0.5,1.2c0.9,1.2,2.5,1.4,3.7,0.6
	c1.2-0.9,1.4-2.5,0.6-3.7C40.5,283.4,40.1,283.3,40.1,283.3 M35.7,283.5c1.2,0,2.2-1,2.2-2.2c0-1.2-1-2.2-2.2-2.2
	c-1.2,0-2.2,1-2.2,2.2C33.5,282.5,34.5,283.5,35.7,283.5 M110.8,283.3C110.8,283.3,110.8,283.3,110.8,283.3l-1.8-0.6
	c-0.1,0.2-0.3,0.5-0.5,0.7l0.7,0.9c0.1,0.2,0.1,0.5-0.1,0.6c-0.1,0.1-0.2,0.1-0.3,0.1c-0.1,0-0.3-0.1-0.3-0.2l-0.7-0.9
	c-0.2,0.1-0.5,0.2-0.8,0.3v2c0,0,0,0.5,0.5,1.2c0.9,1.2,2.5,1.4,3.7,0.6c1.2-0.9,1.4-2.5,0.6-3.7
	C111.3,283.4,110.8,283.3,110.8,283.3 M114,278.9c-0.2-0.7-0.7-1.2-1.3-1.5c-0.6-0.3-1.3-0.4-2-0.2c-0.7,0.2-1.1,0.6-1.1,0.7
	l-1.1,1.6c0.2,0.2,0.4,0.4,0.5,0.7l1.1-0.3c0.2-0.1,0.5,0,0.5,0.3c0.1,0.2-0.1,0.5-0.3,0.5l-1.1,0.4c0,0.1,0,0.3,0,0.4
	c0,0.1,0,0.3,0,0.4l1.8,0.6c0,0,0.5,0.1,1.3-0.1C113.7,281.7,114.5,280.2,114,278.9 M106.6,287.8c-0.1-0.1-0.1-0.2-0.2-0.2
	c0,0.1-0.1,0.2-0.2,0.2c-0.4,0.5-0.8,0.9-1.3,1.1c0.5,0.7,1.1,1.2,1.5,1.5c0.4-0.3,1-0.8,1.5-1.5C107.4,288.7,107,288.3,106.6,287.8
	 M112.7,283.2c-0.1,0-0.2,0.1-0.3,0.1c0.1,0.1,0.1,0.1,0.2,0.2c0.4,0.5,0.6,1,0.7,1.6c0.8-0.2,1.5-0.7,1.9-0.9
	c-0.2-0.4-0.5-1.2-1-1.9C113.7,282.7,113.2,283,112.7,283.2 M105.5,287.2c0.5-0.6,0.5-1.1,0.5-1.2v-1.9c-0.3-0.1-0.5-0.1-0.8-0.3
	l-0.7,0.9c-0.1,0.1-0.2,0.2-0.3,0.2c-0.1,0-0.2,0-0.3-0.1c-0.2-0.1-0.2-0.4-0.1-0.6l0.7-0.9c-0.2-0.2-0.4-0.4-0.5-0.7l-1.8,0.6
	c0,0-0.5,0.2-1,0.8c-0.9,1.2-0.6,2.8,0.6,3.7C103,288.6,104.6,288.4,105.5,287.2 M104.3,281.3c0,1.2,1,2.2,2.2,2.2
	c1.2,0,2.2-1,2.2-2.2c0-1.2-1-2.2-2.2-2.2C105.3,279.1,104.3,280.1,104.3,281.3 M101.8,282.3l1.8-0.6c0-0.1,0-0.3,0-0.4
	c0-0.1,0-0.3,0-0.4l-1.1-0.3c-0.2-0.1-0.3-0.3-0.3-0.5c0.1-0.2,0.3-0.3,0.5-0.3l1.1,0.3c0.1-0.2,0.3-0.5,0.5-0.7l-1.1-1.6
	c0,0-0.3-0.4-1.1-0.7c-0.3-0.1-0.5-0.1-0.8-0.1c-0.4,0-0.8,0.1-1.2,0.3c-0.6,0.3-1.1,0.9-1.3,1.5c-0.5,1.4,0.3,2.9,1.7,3.3
	C101.3,282.4,101.8,282.3,101.8,282.3 M105.2,278.8c0.2-0.1,0.5-0.2,0.8-0.2v-1.1c0-0.2,0.2-0.4,0.4-0.4c0.2,0,0.4,0.2,0.4,0.4v1.1
	c0.3,0,0.5,0.1,0.8,0.2l1.1-1.5c0,0,0.3-0.4,0.3-1.2c0-1.5-1.2-2.6-2.6-2.6c-1.5,0-2.6,1.2-2.6,2.6c0,0.8,0.3,1.2,0.3,1.2
	L105.2,278.8z M110.1,276.3c0.1,0,0.2-0.1,0.3-0.1c0.6-0.2,1.1-0.2,1.7-0.1c0-0.8-0.2-1.6-0.3-2.1c-0.4,0-1.3,0.1-2.1,0.4
	c0.3,0.5,0.4,1.1,0.4,1.7C110.1,276.1,110.1,276.2,110.1,276.3 M98.8,282.3c-0.5,0.6-0.8,1.4-1,1.9c0.4,0.2,1.1,0.7,1.9,0.9
	c0.1-0.6,0.3-1.1,0.7-1.6c0.1-0.1,0.1-0.2,0.2-0.2c-0.1,0-0.2,0-0.3-0.1C99.7,283,99.2,282.7,98.8,282.3 M102.5,276.2
	c0.1,0,0.2,0.1,0.3,0.1c0-0.1,0-0.2,0-0.3c0-0.6,0.1-1.2,0.4-1.7c-0.8-0.3-1.6-0.3-2.1-0.3c-0.1,0.4-0.3,1.3-0.3,2.1
	C101.4,276,102,276,102.5,276.2"/>
</svg>
